<svg xmlns="http://www.w3.org/2000/svg" viewBox="0 0 512 512">
  <defs>
    <linearGradient id="b" x1="0%" y1="0%" x2="100%" y2="100%">
      <stop offset="0%" stop-color="#1a5cff"/>
      <stop offset="100%" stop-color="#0043e0"/>
    </linearGradient>
    <linearGradient id="p" x1="0%" y1="0%" x2="100%" y2="100%">
      <stop offset="0%" stop-color="#e8528a"/>
      <stop offset="100%" stop-color="#d63c76"/>
    </linearGradient>
  </defs>
  <!-- Outer blue ring -->
  <path d="M256 32C132.3 32 32 132.3 32 256s100.3 224 224 224 224-100.3 224-224S379.7 32 256 32zm0 376c-83.9 0-152-68.1-152-152S172.1 104 256 104s152 68.1 152 152-68.1 152-152 152z" fill="url(#b)"/>
  <!-- Inner pink ring -->
  <path d="M256 136c-66.3 0-120 53.7-120 120s53.7 120 120 120 120-53.7 120-120-53.7-120-120-120zm0 176c-30.9 0-56-25.1-56-56s25.1-56 56-56 56 25.1 56 56-25.1 56-56 56z" fill="url(#p)"/>
  <!-- Top-right orbital -->
  <circle cx="420" cy="92" r="36" fill="url(#b)"/>
  <circle cx="420" cy="92" r="14" fill="#000"/>
  <!-- Bottom-left orbital -->
  <circle cx="92" cy="420" r="36" fill="url(#b)"/>
  <circle cx="92" cy="420" r="14" fill="#000"/>
</svg>
